<svg width="456" height="538" viewBox="0 0 456 538" fill="none" xmlns="http://www.w3.org/2000/svg">
<path d="M430.424 2.09631H270.037L63.0855 250.959L57.9117 256.441H198.897H201.484V257.537V258.633V260.826L153.627 327.701L65.6724 447.199L6.17379 527.229L1 533.807V536L2.29345 534.904L37.2165 507.496L63.0855 487.762L82.4872 472.414L103.182 455.969L122.584 440.621L143.279 425.273L163.974 408.828L184.67 392.383L205.365 377.035L217.006 368.264L228.647 358.398L238.994 350.723L260.983 333.182L293.319 306.871L330.829 278.367L363.165 253.152L394.208 229.033L417.49 210.395L433.011 198.336L447.239 188.469L452.413 184.084L453.707 182.988L455 180.795H453.707H452.413H448.533H436.892H420.077H405.849H400.675H348.937H328.242H310.134H288.145V179.699L307.547 155.58L324.362 134.75L343.764 110.631L356.698 95.2828L374.806 73.3566L390.328 53.6229L404.556 34.9857L418.783 18.541L429.131 5.38525L431.718 4.28893L430.424 1V2.09631Z" stroke="black"/>
</svg>
